<?xml version="1.0" encoding="UTF-8" standalone="no" ?>
<!DOCTYPE svg PUBLIC "-//W3C//DTD SVG 1.1//EN" "http://www.w3.org/Graphics/SVG/1.1/DTD/svg11.dtd">
<svg xmlns="http://www.w3.org/2000/svg" xmlns:xlink="http://www.w3.org/1999/xlink" version="1.1" width="640" height="640" viewBox="0 0 640 640" xml:space="preserve">
<desc>Created with Fabric.js 4.6.0</desc>
<defs>
</defs>
<g transform="matrix(0.55 0 0 0.32 104.61 466.34)" id="ebJtX54UgpISHzjWaQdT5"  >
<linearGradient id="SVGID_623" gradientUnits="userSpaceOnUse" gradientTransform="matrix(1 0 0 1 -65.95 -113.06)"  x1="9.126559714795007" y1="125.61326599354723" x2="80.55642183090532" y2="110.78260645700536">
<stop offset="0%" style="stop-color:#31A8F7;stop-opacity: 1"/>
<stop offset="76.81138556242475%" style="stop-color:#7E7E7E;stop-opacity: 1"/>
<stop offset="100%" style="stop-color:#000000;stop-opacity: 1"/>
</linearGradient>
<filter id="SVGID_644" y="-21%" height="142%" x="-21%" width="142%" >
	<feGaussianBlur in="SourceAlpha" stdDeviation="0"></feGaussianBlur>
	<feOffset dx="-1" dy="2" result="oBlur" ></feOffset>
	<feFlood flood-color="rgb(0,0,0)" flood-opacity="1"/>
	<feComposite in2="oBlur" operator="in" />
	<feMerge>
		<feMergeNode></feMergeNode>
		<feMergeNode in="SourceGraphic"></feMergeNode>
	</feMerge>
</filter>
<path style="stroke: rgb(255,255,255); stroke-width: 2; stroke-dasharray: none; stroke-linecap: butt; stroke-dashoffset: 0; stroke-linejoin: miter; stroke-miterlimit: 4; fill: url(#SVGID_623); fill-rule: nonzero; opacity: 1;filter: url(#SVGID_644);" vector-effect="non-scaling-stroke"  transform=" translate(0, 0)" d="M -26.45976 -42.00238 C -25.318939999999998 84.62864 -50.416979999999995 90.33273999999999 -50.416979999999995 90.33273999999999 C -50.416979999999995 90.33273999999999 -92.62732 145.0921 -37.86796 84.62863999999999 C 16.891400000000004 24.165179999999992 -4.784179999999999 -16.904340000000005 -4.784179999999999 -16.904340000000005 L 23.73632 56.10813999999999 L -8.20664 72.07961999999999 L -0.22090000000000032 69.79798 L 39.7078 50.404039999999995 L 18.03222 -11.200240000000008 L 62.52419999999999 -4.355320000000008 L 65.94666 -6.636960000000007 C 65.94666 -6.636960000000007 6.6240199999999945 -13.481880000000007 -2.5025400000000104 -54.55140000000001 C -11.62910000000001 -95.62092000000001 -27.60058000000001 -168.6334 -26.45976000000001 -42.00238000000001 z" stroke-linecap="round" />
</g>
</svg>